<svg width="70" height="70" viewBox="0 0 70 70" fill="none" xmlns="http://www.w3.org/2000/svg">
<path d="M11.25 0C32.114 0 49.0276 16.9136 49.0276 37.7777V67.222C49.0276 68.7561 47.7839 69.9997 46.2498 69.9997C44.7157 69.9997 43.4721 68.7561 43.4721 67.222V37.7777C43.4721 19.9819 29.0457 5.55554 11.25 5.55554H0V0H11.25Z" fill="#FFC17D"/>
<path d="M11.5277 11.2499C26.0252 11.2499 37.7776 23.0024 37.7776 37.4998V67.222C37.7776 68.7561 36.534 69.9997 34.9999 69.9997C33.4657 69.9997 32.2221 68.7561 32.2221 67.222V37.4998C32.2221 26.0706 22.9569 16.8054 11.5277 16.8054H0V11.2499H11.5277Z" fill="#FFC17D"/>
<path d="M26.5276 37.4998C26.5276 29.2156 19.8119 22.4999 11.5277 22.4999H0V28.0554H11.5277C16.7437 28.0554 20.9721 32.2838 20.9721 37.4998V67.222C20.9721 68.7561 22.2157 69.9997 23.7499 69.9997C25.284 69.9997 26.5276 68.7561 26.5276 67.222V37.4998Z" fill="#FFC17D"/>
<path d="M70 0H33.292C35.8712 1.51363 38.2808 3.28467 40.4857 5.27776H70V0Z" fill="#FFC17D"/>
<path d="M45.9741 11.25H70V16.5277H49.4199C48.397 14.6822 47.2443 12.9189 45.9741 11.25Z" fill="#FFC17D"/>
<path d="M52.1616 22.4999H70V27.7777H53.7414C53.3243 25.973 52.7951 24.2112 52.1616 22.4999Z" fill="#FFC17D"/>
</svg>
